<?xml version="1.0" standalone="no"?>
<!DOCTYPE svg PUBLIC "-//W3C//DTD SVG 20010904//EN"
 "http://www.w3.org/TR/2001/REC-SVG-20010904/DTD/svg10.dtd">
<svg version="1.0" xmlns="http://www.w3.org/2000/svg"
 width="800.000000pt" height="400.000000pt" viewBox="0 0 800.000000 400.000000"
 preserveAspectRatio="xMidYMid meet">
<metadata>
Created by potrace 1.16, written by Peter Selinger 2001-2019
</metadata>
<g transform="translate(0.000000,400.000000) scale(0.100000,-0.100000)"
fill="#000000" stroke="none">
<path d="M1815 2293 c-32 -9 -65 -34 -81 -64 -26 -51 -18 -112 27 -201 26 -52
46 -109 55 -162 8 -45 22 -97 31 -118 31 -73 113 -128 190 -128 44 0 316 71
359 93 39 20 70 55 89 99 36 88 0 189 -86 237 -34 20 -56 23 -164 24 -147 2
-154 6 -230 117 -65 96 -114 122 -190 103z"/>
<path d="M373 2045 c-56 -24 -106 -37 -155 -41 -136 -12 -198 -60 -198 -153 0
-62 30 -105 93 -134 29 -14 74 -35 100 -47 64 -30 102 -86 102 -152 0 -91 -71
-127 -218 -108 -45 5 -85 10 -89 10 -5 0 -8 -319 -8 -710 l0 -710 4000 0 4000
0 0 781 0 780 -67 -5 c-38 -3 -165 -11 -283 -16 -543 -27 -978 -78 -1740 -205
-1074 -179 -1675 -223 -2880 -212 -602 6 -734 11 -1150 43 -324 25 -454 54
-467 104 -3 11 -9 20 -14 20 -25 0 -4 52 42 105 88 103 111 171 88 253 -23 84
-115 152 -206 152 -49 0 -134 -50 -168 -98 -25 -37 -30 -53 -30 -105 0 -52 7
-77 43 -154 47 -101 48 -122 4 -151 -42 -27 -248 -24 -323 6 -67 27 -88 47
-95 94 -5 30 1 43 47 104 30 38 62 85 71 104 24 45 23 114 -2 164 -23 47 -273
290 -315 306 -46 17 -98 10 -182 -25z"/>
</g>
</svg>
