<?xml version="1.0" standalone="no"?>
<!DOCTYPE svg PUBLIC "-//W3C//DTD SVG 20010904//EN"
 "http://www.w3.org/TR/2001/REC-SVG-20010904/DTD/svg10.dtd">
<svg version="1.0" xmlns="http://www.w3.org/2000/svg"
 width="3000.000000pt" height="1765.000000pt" viewBox="0 0 3000.000000 1765.000000"
 preserveAspectRatio="xMidYMid meet">
<metadata>
Created by potrace 1.16, written by Peter Selinger 2001-2019
</metadata>
<g transform="translate(0.000000,1765.000000) scale(0.100000,-0.100000)"
fill="#000000" stroke="none">
<path d="M1699 12089 c-553 -33 -1124 -233 -1585 -554 l-94 -66 0 -5734 0
-5735 14990 0 14990 0 0 1585 c0 1402 -2 1585 -15 1585 -8 0 -15 7 -15 15 0 8
7 15 15 15 13 0 15 432 15 3833 l-1 3832 -105 84 c-302 239 -581 418 -889 571
-303 150 -523 226 -800 276 -156 28 -483 26 -632 -4 -501 -101 -943 -419
-1458 -1047 -59 -71 -248 -317 -420 -545 -388 -514 -508 -661 -705 -864 -370
-380 -687 -573 -1080 -657 -152 -33 -452 -33 -625 -1 -316 60 -551 141 -1135
390 -614 262 -843 341 -1155 398 -142 26 -577 27 -750 1 -274 -42 -507 -97
-1040 -247 -720 -203 -986 -256 -1340 -267 -574 -17 -1136 126 -1825 468 -321
159 -569 299 -1110 629 -547 333 -759 457 -1034 603 -851 454 -1562 633 -2229
562 -436 -46 -766 -141 -1612 -465 -829 -317 -1173 -411 -1730 -472 -189 -21
-837 -17 -1045 5 -801 87 -1529 287 -2285 628 -77 34 -432 209 -790 388 -1253
628 -1600 755 -2160 791 -88 5 -173 9 -190 8 -16 0 -87 -4 -156 -9z m13028
-11232 c110 -110 133 -138 133 -162 0 -24 -23 -52 -133 -162 -110 -110 -138
-133 -162 -133 -25 0 -52 23 -162 132 -113 113 -133 137 -133 163 0 26 20 51
133 163 109 108 139 132 162 132 24 0 53 -24 162 -133z m2210 55 c9 -6 13 -55
15 -167 l3 -160 45 -5 c42 -5 45 -7 45 -35 0 -29 -1 -30 -53 -33 -47 -3 -56 0
-82 27 l-30 29 0 164 c0 114 4 168 12 176 14 14 28 15 45 4z m483 -53 c52 -23
62 -36 49 -61 -12 -23 -23 -23 -77 3 -38 19 -49 20 -82 10 -39 -11 -54 -29
-41 -49 3 -6 42 -20 86 -32 98 -26 135 -56 135 -110 0 -94 -132 -139 -248 -85
-59 27 -73 49 -48 73 16 16 19 16 54 -4 55 -32 94 -38 137 -20 29 12 36 20 33
38 -3 24 -27 35 -125 58 -62 15 -97 49 -97 93 0 89 118 134 224 86z m-2364 3
c21 -13 155 -314 148 -334 -3 -11 -15 -18 -30 -18 -22 0 -32 15 -88 133 -94
199 -93 197 -71 213 21 16 26 17 41 6z m284 -26 c0 -25 -94 -229 -108 -234 -5
-1 -16 14 -24 35 -14 37 -13 41 25 123 21 47 45 90 53 96 22 17 54 5 54 -20z
m373 20 c43 -18 84 -67 97 -118 19 -67 17 -68 -129 -68 -124 0 -129 -1 -124
-20 9 -34 61 -70 100 -70 26 0 42 8 63 30 31 33 64 39 74 13 8 -20 -17 -57
-58 -87 -43 -32 -132 -29 -178 6 -102 77 -89 249 22 306 51 25 87 28 133 8z
m411 -140 c143 -179 144 -180 127 -200 -24 -28 -47 -17 -95 44 -26 33 -51 60
-56 60 -5 0 -26 -22 -47 -50 -37 -48 -71 -69 -92 -55 -22 13 -10 44 39 105 28
34 50 65 50 67 0 3 -22 33 -50 68 -27 35 -50 70 -50 78 0 19 28 37 47 30 7 -3
64 -69 127 -147z m516 132 c52 -26 93 -93 88 -143 l-3 -30 -127 -3 c-143 -3
-153 -9 -99 -63 40 -40 88 -40 134 1 51 45 86 37 73 -15 -9 -36 -69 -77 -120
-82 -154 -18 -243 174 -138 299 51 60 119 73 192 36z m-3980 -121 l0 -113 -42
-2 c-61 -2 -75 5 -88 44 -22 67 11 124 72 124 24 0 28 4 28 30 0 20 5 30 15
30 12 0 15 -19 15 -113z m1010 14 c0 -55 3 -106 6 -115 4 -11 1 -16 -10 -16
-9 0 -16 5 -16 12 0 9 -3 9 -12 0 -17 -17 -58 -15 -80 5 -13 11 -18 30 -18 65
0 57 24 88 70 88 27 0 30 3 30 30 0 20 5 30 15 30 12 0 15 -18 15 -99z m160
69 c0 -26 4 -30 28 -30 49 0 67 -22 67 -80 0 -42 -4 -55 -24 -71 -23 -19 -65
-25 -95 -13 -13 5 -16 25 -16 115 0 102 1 109 20 109 16 0 20 -7 20 -30z
m-1029 -40 c13 -8 19 -21 19 -45 l0 -35 -51 0 c-51 0 -51 0 -36 -22 11 -17 23
-22 45 -21 34 3 52 -14 31 -28 -25 -16 -78 -10 -99 11 -14 14 -20 33 -20 65 0
71 52 106 111 75z m378 1 c11 -7 14 -30 13 -92 -2 -107 -16 -129 -77 -129 -37
0 -45 3 -45 19 0 15 7 18 36 17 22 -1 39 4 41 12 3 8 -5 12 -24 12 -45 0 -64
20 -70 72 -5 40 -2 50 20 72 27 27 78 35 106 17z m161 -1 c10 -6 16 -32 18
-84 4 -72 3 -76 -17 -76 -19 0 -21 6 -21 65 0 49 -4 67 -15 71 -29 12 -45 -16
-45 -77 0 -51 -3 -59 -19 -59 -23 0 -27 18 -23 101 l4 66 51 1 c29 1 59 -3 67
-8z m164 -12 c9 -12 16 -33 16 -45 0 -21 -5 -23 -50 -23 -37 0 -50 -4 -50 -15
0 -21 35 -37 65 -29 18 4 25 2 25 -9 0 -36 -81 -37 -109 -1 -45 57 -12 144 54
144 24 0 39 -7 49 -22z"/>
<path d="M14433 808 c-57 -57 -103 -108 -103 -113 0 -13 222 -235 235 -235 13
0 235 222 235 235 0 6 -47 57 -105 115 l-105 105 0 -78 c0 -64 3 -80 20 -97
11 -11 20 -31 20 -45 0 -55 -77 -87 -113 -47 -24 26 -22 78 3 95 19 13 21 23
18 91 l-3 76 -102 -102z"/>
</g>
</svg>
